<svg width="44" height="44" viewBox="0 0 44 44" fill="none" xmlns="http://www.w3.org/2000/svg">
<path d="M21.9998 25.6667C20.4721 25.6667 19.1734 25.132 18.104 24.0626C17.0346 22.9931 16.4998 21.6945 16.4998 20.1667V9.16675C16.4998 7.63897 17.0346 6.34036 18.104 5.27091C19.1734 4.20147 20.4721 3.66675 21.9998 3.66675C23.5276 3.66675 24.8262 4.20147 25.8957 5.27091C26.9651 6.34036 27.4998 7.63897 27.4998 9.16675V20.1667C27.4998 21.6945 26.9651 22.9931 25.8957 24.0626C24.8262 25.132 23.5276 25.6667 21.9998 25.6667ZM20.1665 38.5001V32.8626C16.9887 32.4348 14.3609 31.014 12.2832 28.6001C10.2054 26.1862 9.1665 23.3751 9.1665 20.1667H12.8332C12.8332 22.7029 13.7272 24.865 15.5153 26.6531C17.3034 28.4412 19.4649 29.3346 21.9998 29.3334C24.5347 29.3322 26.6968 28.4381 28.4862 26.6512C30.2755 24.8644 31.1689 22.7029 31.1665 20.1667H34.8332C34.8332 23.3751 33.7943 26.1862 31.7165 28.6001C29.6387 31.014 27.0109 32.4348 23.8332 32.8626V38.5001H20.1665Z" fill="black"/>
</svg>
