<svg width="44" height="44" viewBox="0 0 44 44" fill="none" xmlns="http://www.w3.org/2000/svg">
<g clip-path="url(#clip0_46_173)">
<path d="M23.9432 6.01885C23.4276 5.50386 22.7286 5.2146 21.9999 5.2146C21.2711 5.2146 20.5722 5.50386 20.0565 6.01885L9.68169 16.3882C9.1658 16.9041 8.87598 17.6038 8.87598 18.3333C8.87598 19.0629 9.1658 19.7626 9.68169 20.2785C10.1976 20.7944 10.8973 21.0842 11.6269 21.0842C12.3564 21.0842 13.0561 20.7944 13.572 20.2785L19.2499 14.6025V35.75C19.2499 36.4794 19.5396 37.1788 20.0553 37.6946C20.571 38.2103 21.2705 38.5 21.9999 38.5C22.7292 38.5 23.4287 38.2103 23.9444 37.6946C24.4601 37.1788 24.7499 36.4794 24.7499 35.75V14.6025L30.4259 20.2785C30.6813 20.534 30.9846 20.7366 31.3183 20.8748C31.6521 21.0131 32.0098 21.0842 32.371 21.0842C32.7323 21.0842 33.09 21.0131 33.4237 20.8748C33.7575 20.7366 34.0608 20.534 34.3162 20.2785C34.5716 20.0231 34.7743 19.7198 34.9125 19.3861C35.0508 19.0523 35.1219 18.6946 35.1219 18.3333C35.1219 17.9721 35.0508 17.6144 34.9125 17.2806C34.7743 16.9469 34.5716 16.6436 34.3162 16.3882L23.9432 6.01885Z" fill="black"/>
</g>
<defs>
<clipPath id="clip0_46_173">
<rect width="44" height="44" fill="white"/>
</clipPath>
</defs>
</svg>
